# xmcd CD database file
#
# Track frame offsets:
#	150
#	19304
#	35595
#	54317
#	67940
#	84293
#	108023
#	128793
#	150531
#	171844
#	188002
#	204669
#
# Disc length: 2970 seconds
#
# Revision: 0
# Processed by: cddbd v1.5.2PL0 Copyright (c) Steve Scherf et al.
# Submitted via: CDex 1.51
#
DISCID=910b980c
DTITLE=Richie Arndt,Timo Gross and Alex Conti - Crossing Borders
DYEAR=2011
DGENRE=Blues
TTITLE0=Riviera Sunrise
TTITLE1=Turn Your Car Around
TTITLE2=Down To The Limit
TTITLE3=How Can I Win (Your Love Again)
TTITLE4=Stand Up
TTITLE5=Out For The Nation
TTITLE6=Pillow Blues
TTITLE7=Why
TTITLE8=You`ve Seen It All
TTITLE9=Desperados On The Screen
TTITLE10=Clap Your Hands
TTITLE11=Wanna Be Your Mate
EXTD=YEAR: 2011
EXTT0=
EXTT1=
EXTT2=
EXTT3=
EXTT4=
EXTT5=
EXTT6=
EXTT7=
EXTT8=
EXTT9=
EXTT10=
EXTT11=
PLAYORDER=
